<svg width="288" height="348" viewBox="0 0 288 348" fill="none" xmlns="http://www.w3.org/2000/svg">
<g opacity="0.9">
<path d="M200.607 248.945C200.607 255.369 195.391 260.577 188.955 260.577H144.288C137.852 260.577 132.636 255.369 132.636 248.945V204.355C132.636 197.931 137.852 192.723 144.288 192.723H188.955C195.391 192.723 200.607 197.931 200.607 204.355V248.945Z" fill="#E0E0E0"/>
<path d="M113.215 336.186C113.215 342.61 107.998 347.818 101.563 347.818H56.8953C50.4599 347.818 45.243 342.61 45.243 336.186V291.596C45.243 285.172 50.4599 279.964 56.8953 279.964H101.563C107.998 279.964 113.215 285.172 113.215 291.596V336.186Z" fill="#E0E0E0"/>
<path d="M113.215 161.704C113.215 168.128 107.998 173.336 101.563 173.336H56.8953C50.4599 173.336 45.243 168.128 45.243 161.704V117.114C45.243 110.69 50.4599 105.482 56.8953 105.482H101.563C107.998 105.482 113.215 110.69 113.215 117.114V161.704Z" fill="#E0E0E0"/>
<path d="M102.953 305.167L89.2201 291.458L144.15 236.624L157.882 250.333L102.953 305.167Z" fill="#E0E0E0"/>
<path d="M144.15 217.926L157.882 204.217L102.953 149.383L89.2203 163.092L144.15 217.926Z" fill="#E0E0E0"/>
<path d="M45.243 336.186C45.243 342.61 50.4599 347.818 56.8953 347.818H101.563C107.998 347.818 113.215 342.61 113.215 336.186V291.596C113.215 285.172 107.998 279.964 101.563 279.964H56.8953C50.4599 279.964 45.243 285.172 45.243 291.596V336.186Z" fill="#E0E0E0"/>
<path d="M45.243 161.704C45.243 168.128 50.4599 173.336 56.8953 173.336H101.563C107.998 173.336 113.215 168.128 113.215 161.704V117.114C113.215 110.69 107.998 105.482 101.563 105.482H56.8953C50.4599 105.482 45.243 110.69 45.243 117.114V161.704Z" fill="#E0E0E0"/>
<path d="M200.607 336.186C200.607 342.61 195.391 347.818 188.955 347.818H144.288C137.852 347.818 132.636 342.61 132.636 336.186V291.596C132.636 285.172 137.852 279.964 144.288 279.964H188.955C195.391 279.964 200.607 285.172 200.607 291.596V336.186Z" fill="#E0E0E0"/>
<path d="M45.243 336.186C45.243 342.61 50.4599 347.818 56.8953 347.818H101.563C107.998 347.818 113.215 342.61 113.215 336.186V291.596C113.215 285.172 107.998 279.964 101.563 279.964H56.8953C50.4599 279.964 45.243 285.172 45.243 291.596V336.186Z" fill="#E0E0E0"/>
<path d="M45.243 74.463C45.243 80.8872 50.4599 86.0951 56.8953 86.0951H101.563C107.998 86.0951 113.215 80.8872 113.215 74.463V29.8731C113.215 23.4489 107.998 18.241 101.563 18.241H56.8953C50.4599 18.241 45.243 23.4489 45.243 29.8731L45.243 74.463Z" fill="#E0E0E0"/>
<path d="M14.3081 130.685L0.575684 116.976L55.5053 62.1419L69.2377 75.8506L14.3081 130.685Z" fill="#E0E0E0"/>
<path d="M132.636 -12.778C132.636 -6.35376 137.852 -1.14587 144.288 -1.14587H188.955C195.391 -1.14587 200.607 -6.35376 200.607 -12.778V-57.3679C200.607 -63.7921 195.391 -69 188.955 -69H144.288C137.852 -69 132.636 -63.7921 132.636 -57.3679V-12.778Z" fill="#E0E0E0"/>
<path d="M220.028 74.463C220.028 80.8872 225.245 86.0951 231.68 86.0951H276.348C282.783 86.0951 288 80.8872 288 74.463V29.8731C288 23.4489 282.783 18.241 276.348 18.241H231.68C225.245 18.241 220.028 23.4489 220.028 29.8731V74.463Z" fill="#E0E0E0"/>
<path d="M230.29 43.444L244.023 29.7354L189.093 -25.0991L175.361 -11.3904L230.29 43.444Z" fill="#E0E0E0"/>
<path d="M45.243 -12.778C45.243 -6.35376 50.4599 -1.14587 56.8953 -1.14587H101.563C107.998 -1.14587 113.215 -6.35376 113.215 -12.778V-57.3679C113.215 -63.7921 107.998 -69 101.563 -69H56.8953C50.4599 -69 45.243 -63.7921 45.243 -57.3679V-12.778Z" fill="#E0E0E0"/>
<path d="M132.636 74.463C132.636 80.8872 137.852 86.0951 144.288 86.0951H188.955C195.391 86.0951 200.607 80.8872 200.607 74.463V29.8731C200.607 23.4489 195.391 18.241 188.955 18.241H144.288C137.852 18.241 132.636 23.4489 132.636 29.8731V74.463Z" fill="#E0E0E0"/>
<path d="M142.898 43.444L156.63 29.7354L101.701 -25.0991L87.9683 -11.3904L142.898 43.444Z" fill="#E0E0E0"/>
<path d="M288 248.945C288 255.369 282.783 260.577 276.348 260.577H231.68C225.245 260.577 220.028 255.369 220.028 248.945V204.355C220.028 197.931 225.245 192.723 231.68 192.723L276.348 192.723C282.783 192.723 288 197.931 288 204.355V248.945Z" fill="#E0E0E0"/>
<path d="M288 74.463C288 80.8872 282.783 86.0951 276.348 86.0951H231.68C225.245 86.0951 220.028 80.8872 220.028 74.463V29.8731C220.028 23.4489 225.245 18.241 231.68 18.241H276.348C282.783 18.241 288 23.4489 288 29.8731V74.463Z" fill="#E0E0E0"/>
<path d="M200.607 336.186C200.607 342.61 195.391 347.818 188.955 347.818H144.288C137.852 347.818 132.636 342.61 132.636 336.186V291.596C132.636 285.172 137.852 279.964 144.288 279.964H188.955C195.391 279.964 200.607 285.172 200.607 291.596V336.186Z" fill="#E0E0E0"/>
<path d="M200.607 161.704C200.607 168.128 195.391 173.336 188.955 173.336H144.288C137.852 173.336 132.636 168.128 132.636 161.704V117.114C132.636 110.69 137.852 105.482 144.288 105.482H188.955C195.391 105.482 200.607 110.69 200.607 117.114V161.704Z" fill="#E0E0E0"/>
<path d="M113.215 74.463C113.215 80.8872 107.998 86.0951 101.563 86.0951H56.8953C50.4599 86.0951 45.243 80.8872 45.243 74.463L45.243 29.8731C45.243 23.4489 50.4599 18.241 56.8953 18.241H101.563C107.998 18.241 113.215 23.4489 113.215 29.8731V74.463Z" fill="#E0E0E0"/>
<path d="M190.345 305.167L176.613 291.458L231.542 236.624L245.275 250.333L190.345 305.167Z" fill="#E0E0E0"/>
<path d="M231.542 217.926L245.275 204.217L190.345 149.383L176.613 163.092L231.542 217.926Z" fill="#E0E0E0"/>
<path d="M144.15 130.685L157.882 116.976L102.953 62.142L89.2203 75.8506L144.15 130.685Z" fill="#E0E0E0"/>
<path d="M190.345 130.685L176.613 116.976L231.542 62.142L245.275 75.8506L190.345 130.685Z" fill="#E0E0E0"/>
<path d="M45.243 74.463C45.243 80.8872 50.4599 86.0951 56.8953 86.0951H101.563C107.998 86.0951 113.215 80.8872 113.215 74.463V29.8731C113.215 23.4489 107.998 18.241 101.563 18.241H56.8953C50.4599 18.241 45.243 23.4489 45.243 29.8731L45.243 74.463Z" fill="#E0E0E0"/>
<path d="M55.5054 43.444L69.2378 29.7354L14.3082 -25.0991L0.575802 -11.3904L55.5054 43.444Z" fill="#E0E0E0"/>
</g>
</svg>
