<svg width="197" height="193" viewBox="0 0 197 193" fill="none" xmlns="http://www.w3.org/2000/svg">
<g opacity="0.9">
<path d="M21.32 -39.9362C21.32 -46.4226 16.0764 -51.6809 9.60802 -51.6809H-35.288C-41.7564 -51.6809 -47 -46.4226 -47 -39.9362L-47 5.08511C-47 11.5715 -41.7564 16.8298 -35.288 16.8298H9.60802C16.0764 16.8298 21.32 11.5715 21.32 5.08511V-39.9362Z" fill="#E0E0E0"/>
<path d="M-47 -39.9362C-47 -46.4226 -41.7564 -51.6809 -35.288 -51.6809H9.60802C16.0764 -51.6809 21.32 -46.4226 21.32 -39.9362V5.08511C21.32 11.5715 16.0764 16.8298 9.60802 16.8298H-35.288C-41.7564 16.8298 -47 11.5715 -47 5.08511L-47 -39.9362Z" fill="#E0E0E0"/>
<path d="M-47 48.1489C-47 41.6625 -41.7564 36.4043 -35.288 36.4043H9.60802C16.0764 36.4043 21.32 41.6625 21.32 48.1489V93.1702C21.32 99.6566 16.0764 104.915 9.60802 104.915H-35.288C-41.7564 104.915 -47 99.6566 -47 93.1702L-47 48.1489Z" fill="#E0E0E0"/>
<path d="M40.84 136.234C40.84 129.748 46.0837 124.489 52.552 124.489H97.448C103.916 124.489 109.16 129.748 109.16 136.234L109.16 181.255C109.16 187.742 103.916 193 97.448 193H52.552C46.0837 193 40.84 187.742 40.84 181.255V136.234Z" fill="#E0E0E0"/>
<path d="M128.68 48.1489C128.68 41.6625 133.924 36.4043 140.392 36.4043H185.288C191.756 36.4043 197 41.6625 197 48.1489V93.1702C197 99.6566 191.756 104.915 185.288 104.915L140.392 104.915C133.924 104.915 128.68 99.6566 128.68 93.1702V48.1489Z" fill="#E0E0E0"/>
<path d="M138.995 79.4681L152.798 93.3093L97.5868 148.674L83.7841 134.833L138.995 79.4681Z" fill="#E0E0E0"/>
<path d="M-47 136.234C-47 129.748 -41.7564 124.489 -35.288 124.489H9.60802C16.0764 124.489 21.32 129.748 21.32 136.234V181.255C21.32 187.742 16.0764 193 9.60802 193H-35.288C-41.7564 193 -47 187.742 -47 181.255V136.234Z" fill="#E0E0E0"/>
<path d="M40.84 48.1489C40.84 41.6625 46.0837 36.4043 52.552 36.4043L97.448 36.4043C103.916 36.4043 109.16 41.6625 109.16 48.1489V93.1702C109.16 99.6566 103.916 104.915 97.448 104.915H52.552C46.0837 104.915 40.84 99.6566 40.84 93.1702V48.1489Z" fill="#E0E0E0"/>
<path d="M51.155 79.4681L64.9577 93.3093L9.74682 148.674L-4.05592 134.833L51.155 79.4681Z" fill="#E0E0E0"/>
<path d="M197 48.1489C197 41.6625 191.756 36.4043 185.288 36.4043H140.392C133.924 36.4043 128.68 41.6625 128.68 48.1489V93.1702C128.68 99.6566 133.924 104.915 140.392 104.915L185.288 104.915C191.756 104.915 197 99.6566 197 93.1702V48.1489Z" fill="#E0E0E0"/>
<path d="M109.16 -39.9362C109.16 -46.4226 103.916 -51.6809 97.448 -51.6809H52.552C46.0837 -51.6809 40.84 -46.4226 40.84 -39.9362V5.08511C40.84 11.5715 46.0837 16.8298 52.552 16.8298L97.448 16.8298C103.916 16.8298 109.16 11.5715 109.16 5.08511V-39.9362Z" fill="#E0E0E0"/>
<path d="M21.32 48.1489C21.32 41.6625 16.0764 36.4043 9.60802 36.4043H-35.288C-41.7564 36.4043 -47 41.6625 -47 48.1489L-47 93.1702C-47 99.6566 -41.7564 104.915 -35.288 104.915H9.60802C16.0764 104.915 21.32 99.6566 21.32 93.1702V48.1489Z" fill="#E0E0E0"/>
<path d="M52.4133 -8.61702L66.2161 5.22423L11.0052 60.5892L-2.79756 46.7479L52.4133 -8.61702Z" fill="#E0E0E0"/>
<path d="M98.8451 -8.61702L85.0423 5.22423L140.253 60.5892L154.056 46.7479L98.8451 -8.61702Z" fill="#E0E0E0"/>
<path d="M-47 48.1489C-47 41.6625 -41.7564 36.4043 -35.288 36.4043H9.60802C16.0764 36.4043 21.32 41.6625 21.32 48.1489V93.1702C21.32 99.6566 16.0764 104.915 9.60802 104.915H-35.288C-41.7564 104.915 -47 99.6566 -47 93.1702L-47 48.1489Z" fill="#E0E0E0"/>
</g>
</svg>
